<svg xmlns="http://www.w3.org/2000/svg" xmlns:xlink="http://www.w3.org/1999/xlink" viewBox="0 0 300 300"><defs><style>.cls-1{fill:none;}.cls-2{isolation:isolate;}.cls-3{clip-path:url(#clip-path);}.cls-4{mix-blend-mode:screen;fill:url(#radial-gradient);}.cls-5{fill:#fff;}</style><clipPath id="clip-path"><rect class="cls-1" x="-3490.65" y="-229.43" width="1920" height="1280"/></clipPath><radialGradient id="radial-gradient" cx="-1849.22" cy="-493.11" r="1891.37" gradientUnits="userSpaceOnUse"><stop offset="0" stop-color="#5b1aff"/><stop offset="0.02" stop-color="#5819f5"/><stop offset="0.09" stop-color="#4514c2"/><stop offset="0.17" stop-color="#350f94"/><stop offset="0.26" stop-color="#270b6c"/><stop offset="0.35" stop-color="#1b084b"/><stop offset="0.44" stop-color="#11052f"/><stop offset="0.54" stop-color="#09031a"/><stop offset="0.66" stop-color="#04010b"/><stop offset="0.79" stop-color="#010003"/><stop offset="1"/></radialGradient></defs><g class="cls-2"><g id="BACKGROUND_2" data-name="BACKGROUND 2"><g class="cls-3"><circle class="cls-4" cx="-1849.22" cy="-493.11" r="1891.37"/></g><path class="cls-5" d="M133.14,189.25c-20.65,20.66-41.4,41.22-61.91,62-7.73,7.84-21.63,6.31-26.08-3.94-.63-1.44-1-3-1.53-4.48v-4.16c.94-4.92,4-8.48,7.41-11.9q29.75-29.58,59.35-59.3c3.22-3.23,4.59-3.24,7.76-.07l15,15C135.75,185,135.76,186.63,133.14,189.25Z"/><path class="cls-5" d="M194,212.63a20.86,20.86,0,0,1-4.65,3.43C173,225,156.65,233.87,140.23,242.61A15.61,15.61,0,0,1,118.71,236c-4.45-8.44-1.84-17.58,6.45-22.06,10.21-5.52,20.48-10.94,30.74-16.41.66-.35,1.31-.73,2.58-1.44-1.33-1.15-2.44-2-3.41-3-8.14-8.11-16.3-16.2-24.38-24.37-7.07-7.16-6.82-17.39.47-23.67a15.73,15.73,0,0,1,20.23-.06c.57.49,1.13,1,1.67,1.54q20.2,20.19,40.38,40.39C200.87,194.47,201.09,205.58,194,212.63Z"/><path class="cls-5" d="M188.66,115.05c-6.08,3-13.14,1.63-18.61-3.79q-9.5-9.44-18.94-19c-.54-.54-1-1.18-1.92-2.37a20.1,20.1,0,0,1-1.67,2.32q-14.9,14.94-29.82,29.82c-6.93,6.88-16.71,7-23.12.33a15.67,15.67,0,0,1-1-20.51,24.89,24.89,0,0,1,1.94-2.16q20.19-20.2,40.4-40.4c5.47-5.46,11.94-7.53,19.33-4.8a21.23,21.23,0,0,1,7.21,4.67c10.12,9.86,20.08,19.88,30,29.92C200.73,97.47,198.85,110,188.66,115.05Z"/><path class="cls-5" d="M256.37,150.6a14.2,14.2,0,0,1-11.82,14.21,21.93,21.93,0,0,1-3.71.3q-25.44,0-50.89,0c-7.78,0-12.09-4.3-12.1-12.07,0-3.87.05-7.75,0-11.63a6,6,0,0,1,1.86-4.63q10-9.93,20-20c1.28-1.28,2.66-2.09,4.44-1.39s2.35,2.36,2.35,4.23c0,5.52,0,11,0,16.85,11.31,0,22.31,0,33.31,0a35.79,35.79,0,0,1,4.14.24A14.14,14.14,0,0,1,256.37,150.6Z"/><path class="cls-5" d="M256.38,72.28a28.53,28.53,0,1,1-28.56-28.51A28.52,28.52,0,0,1,256.38,72.28Z"/></g></g></svg>