<svg id="BACKGROUND_2" data-name="BACKGROUND 2" xmlns="http://www.w3.org/2000/svg" viewBox="0 0 300 300"><defs><style>.cls-1{fill:#fff;}</style></defs><path class="cls-1" d="M276.78,115.32a122,122,0,0,1-14.92,27.76c-12.25,16.59-27.64,28.61-48.12,33.33-11,2.52-21.93,2.05-33,.57-16.76-2.25-33.41-2.14-49.67,3.28-8.65,2.88-16.43,7.24-22.62,14.1-.28.31-.57.6-.87.88-3.86,3.55-7.83,4.08-10.82,1.44-3.8-3.36-4.68-8.93-1.24-12.63a74.42,74.42,0,0,1,12.34-10.93c12.65-8.59,27-12.3,42.08-13.73a152.51,152.51,0,0,1,35.53,1.28c16.39,2.3,31.77-.09,45.43-10,11.46-8.3,19.83-19.23,26-31.87,1.23-2.51,2.36-5.08,3.38-7.69,1.43-3.68,4-5.89,8-5.92s6.67,2,8,5.78c.11.3.28.57.42.86Z"/><path class="cls-1" d="M92,174.22c-2.48-7.37-5.26-15-7.56-22.83-1-3.36-2.67-4.81-6.21-4.48,0,.65,0,1.37,0,2.09.57,10.22,1.1,20.43,1.74,30.64.42,6.64-2.77,10.58-9.43,11.49-12.08,1.67-24.16,3.41-36.25,5.06-5.56.75-10.13-2.6-11-7.9a9.32,9.32,0,0,1,8.07-10.62q13.44-2.08,26.93-3.82c1.89-.24,2.45-.72,2.31-2.71-.62-9-1.42-18.12-1.38-27.18,0-5.37,1.68-10.72,2.25-16.12.74-7,3.86-13.25,6.38-19.66a4.74,4.74,0,0,1,2.23-2.07c5.72-2.93,11.49-5.76,17.24-8.63a4.78,4.78,0,0,0,2-1.6c-4.4.9-8.8,1.79-13.19,2.7-3.87.8-7.73,1.67-11.61,2.42a3.5,3.5,0,0,0-3,2.45c-2.93,7.61-6,15.18-9,22.74-1.78,4.37-5.65,6.38-9.65,5.17-4.71-1.42-6.84-6-5-10.87,2.89-7.45,5.89-14.86,8.85-22.28.66-1.68,1.43-3.33,2-5,1.27-3.87,4-5.8,7.89-6.57,9-1.77,17.91-3.7,26.86-5.58A3,3,0,0,0,85.37,80H71.64a10.61,10.61,0,0,1,10.9-5.55c7.14,1.21,14.29,2.48,21.38,4,6.81,1.46,10.45,7.14,9.34,14a14.84,14.84,0,0,1-.57,2.91c-2.15,5.88-.54,11.28,2.11,16.83l19.12-7.68c-2.76,6.92-5.25,13.25-7.84,19.53-.23.55-1.09.94-1.74,1.22-3,1.28-6.11,2.46-9.14,3.75-2.86,1.22-5.71,2.21-9,.68-1.11,5.8-2.2,11.36-3.18,16.93a5.18,5.18,0,0,0,.44,2.38c1.33,4.07,2.76,8.11,4,12.21a2.71,2.71,0,0,1-.55,2.38C102,167.21,97,170.68,92,174.22Z"/><path class="cls-1" d="M179.86,95.33H165.2a9.66,9.66,0,0,1,9.11-5.81,92.1,92.1,0,0,1,12,1.66c4.06.68,8.09,1.55,12.13,2.32,8.23,1.55,12.37,7.52,10.94,15.82a16.36,16.36,0,0,1-.57,2.9c-2.36,6.16-.25,11.75,2.21,17.53.76-.26,1.51-.48,2.24-.78,8.1-3.26,16.17-6.6,24.3-9.77,5.56-2.17,10.85.8,11.78,6.42.63,3.82-1.52,7.39-5.67,9.1-8.83,3.63-17.7,7.19-26.55,10.78-2.29.93-4.6,1.8-6.87,2.79-2.6,1.12-5.2,1.58-8.12.23-.39,1.49-.76,2.88-1.27,4.81-5.78-.46-11.59-1.05-17.4-1.38-9.79-.56-19.59-1-29.38-1.43-.49,0-1,0-1.71,0,.18-.76.27-1.37.47-1.94,2.68-7.53,5.32-15.07,8.1-22.56a5.26,5.26,0,0,1,2.29-2.59c7-3.61,14.11-7.09,21.09-11a9.59,9.59,0,0,0-1.42.1c-8.46,1.76-16.92,3.58-25.4,5.29a3.91,3.91,0,0,0-3.27,2.77c-3.11,8.07-6.34,16.09-9.6,24.1-1.92,4.73-6.09,6.87-10.45,5.52-4.86-1.5-7.13-6.43-5.14-11.55,3.15-8.14,6.43-16.24,9.66-24.35,4.23-10.65,4.24-10.62,15.41-12.88,8.07-1.64,16.13-3.36,24.19-5.06.55-.11,1.08-.32,1.61-.48Z"/><path class="cls-1" d="M183.62,186.5c6.8,0,13.37-.05,19.93.07.64,0,1.52,1,1.84,1.73,3.83,8.9,4.9,18.39,6,27.89,1.36,11.7,2.83,23.39,4.31,35.08.75,5.88-2.45,10.89-7.78,12a10,10,0,0,1-11.68-6.8,52.22,52.22,0,0,1-1.14-7.31c-1.81-14.47-3.29-29-5.52-43.4-.88-5.7-3.38-11.15-5.15-16.71C184.15,188.13,183.85,187.21,183.62,186.5Z"/><path class="cls-1" d="M153.33,195.24c-.17-3.72-.32-7.16-.49-10.85h20.09c.28,4.68.55,9,.79,13.36.11,2.14.24,4.29.18,6.43a9.63,9.63,0,0,1-8.31,9.63q-20.55,3-41.14,5.78a10,10,0,0,1-11-8.26c-1-4.93,2.21-10.3,7.31-11.3,6.54-1.29,13.19-2,19.79-3C144.75,196.43,148.91,195.86,153.33,195.24Z"/><path class="cls-1" d="M196.48,49a18.52,18.52,0,0,1-.13,37,18.52,18.52,0,1,1,.13-37Z"/><path class="cls-1" d="M101,36.5a17.28,17.28,0,0,1,17.3,17.28A17.32,17.32,0,1,1,101,36.5Z"/><path class="cls-1" d="M97.61,206.1l7.7-.52c0,1.52,0,3.12,0,4.72a17.57,17.57,0,0,0,12.06,16.41c1.77.61,2,1.44,1.67,3.07a9.45,9.45,0,0,1-9.59,7.63,9.32,9.32,0,0,1-9-8.32C99.48,221.5,98.58,213.9,97.61,206.1Z"/></svg>