<svg id="Layer_1" data-name="Layer 1" xmlns="http://www.w3.org/2000/svg" viewBox="0 0 300 300"><defs><style>.cls-1{fill:#fff;}</style></defs><path class="cls-1" d="M126.83,271.26c-4.64-1.37-7.54-4.69-10.29-8.49a121.65,121.65,0,0,0-37.65-34A40.14,40.14,0,0,1,67,218.82c-5.69-7.37-7.37-15.68-5.9-25.2a64.21,64.21,0,0,0,47.22,12.18c17.15-2.14,31.78-8.93,41.7-24.19.74,1.07,1.41,2.1,2.14,3.09,8,10.83,19,16.87,31.85,19.75,19.25,4.32,37.28,1.47,53.66-10,.31-.21.66-.37,1.26-.7,1.56,10.09-.36,19.06-7.22,26.48A43.84,43.84,0,0,1,222,228.1a127.08,127.08,0,0,0-40.42,37.2,15.35,15.35,0,0,1-8.79,6Zm1.44-51.91a4.29,4.29,0,1,0-8.57,0,4.29,4.29,0,0,0,8.57,0Zm26.06-.36a4.24,4.24,0,0,0,4.06,4.55,4.16,4.16,0,0,0,4.49-3.84A4.27,4.27,0,0,0,159,215,4.38,4.38,0,0,0,154.33,219Zm-26.06,17.59a4.29,4.29,0,0,0-8.57-.07,4.29,4.29,0,1,0,8.57.07Zm13.15,4.33a4.42,4.42,0,0,0,4.22-4.47,4.26,4.26,0,0,0-4.56-4.08,4.17,4.17,0,0,0-4.07,4.29A4.33,4.33,0,0,0,141.42,240.91Zm17.14,17.28a4.19,4.19,0,0,0,4.34-4.27,4.27,4.27,0,0,0-4.09-4.31,4.36,4.36,0,0,0-4.49,4.18A4.27,4.27,0,0,0,158.56,258.19Zm-12.85-56.31a4.29,4.29,0,0,0,4.22,4.42,4.43,4.43,0,0,0,4.36-4.34,4.22,4.22,0,0,0-4.16-4.23A4.12,4.12,0,0,0,145.71,201.88Zm17.18,34.66a4.12,4.12,0,0,0-4.38-4.19,4.22,4.22,0,0,0-4.19,4.2,4.35,4.35,0,0,0,4.31,4.36A4.26,4.26,0,0,0,162.89,236.54Zm17.39.19a4.25,4.25,0,0,0-4.26-4.38,4.11,4.11,0,0,0-4.32,4,4.27,4.27,0,0,0,4.08,4.55A4.41,4.41,0,0,0,180.28,236.73ZM106.68,215a4.43,4.43,0,0,0-4.35,4.35,4.29,4.29,0,0,0,4.42,4.23,4.23,4.23,0,0,0,4.21-4.18A4.37,4.37,0,0,0,106.68,215Zm34.63,0a4.34,4.34,0,0,0-4.3,4.38,4.23,4.23,0,0,0,4.42,4.2,4.29,4.29,0,0,0,4.21-4.21A4.43,4.43,0,0,0,141.31,215Zm34.7,8.58a4.28,4.28,0,0,0,4.27-4.38A4.42,4.42,0,0,0,176,215a4.27,4.27,0,0,0-4.33,4.31A4.15,4.15,0,0,0,176,223.55Zm21.53-4.15a4.28,4.28,0,0,0-4.22-4.43,4.43,4.43,0,0,0-4.38,4.32,4.29,4.29,0,0,0,4.16,4.25A4.14,4.14,0,0,0,197.54,219.4Zm-51.9,34.45a4.42,4.42,0,0,0-4.51-4.24A4.34,4.34,0,0,0,137,254a4.28,4.28,0,0,0,4.49,4.21A4.32,4.32,0,0,0,145.64,253.85Z"/><path class="cls-1" d="M154.3,28.74c2.75.62,5.5,1.23,8.25,1.87,3.22.76,5.79,2.61,6.69,5.76,3.09,10.74,5.91,21.56,8.92,32.68a303.73,303.73,0,0,0-56.33.08c.75-2.84,1.4-5.32,2.07-7.8,2.07-7.76,4.18-15.52,6.23-23.29,1.09-4.14,3.59-6.7,7.85-7.54,2.61-.52,5.2-1.17,7.8-1.76Z"/><path class="cls-1" d="M145,93.5c28.79.6,52.09,3,74.52,11a163.45,163.45,0,0,1,29.84,14.19c1.2.72,1.85,1.41,1.64,3-2.08,15.87-4,31.76-6.19,47.62a23.52,23.52,0,0,1-7.58,14.13c-10.8,10.1-23.66,14.69-38.41,14.22-10.78-.34-21-2.7-30-8.76-8.49-5.68-14.16-13.15-14.52-23.85a4.16,4.16,0,0,0-4.3-4.13,4.06,4.06,0,0,0-4.22,3.93c-.52,12-7,20.27-17.05,25.48-20.1,10.42-40.22,10.61-59.73-1.88-8.45-5.41-13.43-13-14.55-23.17-1.6-14.5-3.51-29-5.38-43.43a2.59,2.59,0,0,1,1.51-3,159.05,159.05,0,0,1,63.55-22.32C126.05,95,138.09,94.16,145,93.5Zm-24.79,17.31c-1.14-1.31-2-2.84-3.23-3.59-1.8-1-3.62-.33-5.11,1.16q-23.36,23.37-46.7,46.73c-2.17,2.17-2.3,4.62-.48,6.49s4.44,1.76,6.51-.31q23.39-23.32,46.7-46.73A21.14,21.14,0,0,0,120.18,110.81Zm-53,26.49c1.41-.56,2.49-.67,3.1-1.26,4.63-4.5,9.22-9,13.69-13.68a4.08,4.08,0,0,0-.26-5.6,4,4,0,0,0-5.55-.49c-4.73,4.5-9.38,9.09-13.8,13.88-.8.87-.86,3.08-.36,4.31S66.15,136.41,67.2,137.3Z"/><path class="cls-1" d="M47.88,110.17a12.05,12.05,0,0,1,6.54-14c7.11-3.36,14.36-6.49,21.76-9.14,14.4-5.15,29.36-7.71,44.57-9.15A318.32,318.32,0,0,1,169,77.05c25.16,1.45,49.55,6.17,72.5,17,1.35.64,2.7,1.29,4,2,5.18,2.9,7.53,7.65,6.77,13.89a16.8,16.8,0,0,1-1.64-.72c-21.75-12.41-45.2-19.42-70-22.35a259.1,259.1,0,0,0-64.66.46c-23.56,3.12-45.8,10.09-66.47,21.89Z"/><path class="cls-1" d="M120.1,41.94l-5.31,19.89c-.61,2.29-1.11,4.6-1.88,6.83a2.8,2.8,0,0,1-1.84,1.64A199.6,199.6,0,0,0,60.91,83.38a10.85,10.85,0,0,1-1.11.29,63.67,63.67,0,0,1,4.58-18.16,158.42,158.42,0,0,1,7.5-15,16.34,16.34,0,0,1,14.94-8.79c10.73-.11,21.46,0,32.19,0A6.74,6.74,0,0,1,120.1,41.94Z"/><path class="cls-1" d="M240.08,83.33c-8.25-2.63-16.23-5.6-24.45-7.69-8.6-2.18-17.43-3.49-26.14-5.27-.89-.19-2.18-.89-2.38-1.61-2.5-8.85-4.83-17.75-7.29-26.94,1,0,1.82-.13,2.64-.13,9.62,0,19.24.09,28.86,0,7.73-.1,13.4,3,17.39,9.7A85.56,85.56,0,0,1,239.92,81.5C240,82.11,240,82.74,240.08,83.33Z"/><path class="cls-1" d="M258.93,128.3c1,0,1.74,0,2.52,0,3.88,0,5.48,1.6,5.49,5.48q0,17.29,0,34.58c0,1.1.06,2.21,0,3.31a4.34,4.34,0,0,1-4.46,4.31c-3.38.1-6.77,0-9.78,0C254.76,160.09,256.84,144.27,258.93,128.3Z"/><path class="cls-1" d="M41.05,128.44C43.13,144.27,45.19,160,47.28,176c-3.21,0-6.81.16-10.39,0-2.47-.14-3.83-2-3.84-4.83q0-12.67,0-25.33V134.37c0-4.76,1.44-6.15,6.28-6.07C39.86,128.31,40.39,128.39,41.05,128.44Z"/></svg>