<svg id="BACKGROUND_2" data-name="BACKGROUND 2" xmlns="http://www.w3.org/2000/svg" viewBox="0 0 300 300"><defs><style>.cls-1{fill:#fff;}</style></defs><path class="cls-1" d="M293.22,152.85c-1.2,2.17-2.1,4.59-3.65,6.48-4.07,5-10.26,6-16.15,2.88-2.7-1.43-5.28-3.08-8-4.67-1.79,4.84-3.65,9.6-5.26,14.45-.29.85.25,2.12.72,3a86,86,0,0,1,8.9,26.31c2.43,16.25-4.19,28.46-16.66,38.08a65.13,65.13,0,0,1-9,5.61,13.39,13.39,0,0,1-19.94-10.22,9.79,9.79,0,0,1,4.59-10.08c1.78-1.18,3.7-2.16,5.57-3.2,8.76-4.89,11.89-10.64,9.95-20.54-1-5.19-3.45-10.1-5.25-15.13l-.93.13c-.52.82-1.06,1.63-1.55,2.46-9.87,16.66-19.68,33.36-29.62,50-5.36,9-16.26,9.49-22.15,1.15a10.77,10.77,0,0,1-1.15-11.11,43.79,43.79,0,0,1,2.39-4.42c12.31-21,24.85-41.79,36.81-62.94,3.5-6.18,8.28-21.09,7.71-28.64-6,4.26-11.75,8.38-17.58,12.32-2.74,1.84-5.54,4-8.63,4.83-7.74,2.05-16.19-5.18-15.81-13,.19-3.89,2.55-6.42,5.36-8.74,13-10.74,27.41-19.24,42.38-26.88,2.72-1.39,5.18-3.43,8-4.47a19,19,0,0,1,25.35,14.81c.79,4.55.46,9.28.85,13.91a6.21,6.21,0,0,0,1.47,3.89,116.36,116.36,0,0,0,12.54,10.12c3.54,2.34,7,4.5,8.71,8.55Z"/><path class="cls-1" d="M45.21,182.68c5.5-8.15,11.64-15.76,16.11-24.26,5-9.58,8.58-20,12.81-30.1a6.05,6.05,0,0,0-1.2,0c-9.19,1.91-18.36,3.95-27.59,5.72-8.16,1.56-13.06-1.13-14.44-7.52-1.62-7.54,2.63-15.14,9.77-16.83,5.87-1.4,11.91-2.13,17.8-3.47a131.29,131.29,0,0,0,36-14.13,17.28,17.28,0,0,1,13.45-1.92,22.21,22.21,0,0,1,5.63,2.32c5.16,3.13,10.32,6.3,15.26,9.75,9.07,6.33,18,12.88,27.37,19.62l13-9.24,13.71-9.7c1.53,2.16,3,4.26,4.64,6.54l-6.43,4.6c-7.14,5.07-14.31,10.1-21.4,15.24a5.58,5.58,0,0,0-2,2.78c-2,7.52-12.61,14.16-21.28,7-2.94-2.43-5.87-4.9-8.91-7.2s-6.1-4.28-9.42-6.59c-.42.81-.82,1.48-1.14,2.19-5.54,12.71-11.05,25.43-16.65,38.12a4.22,4.22,0,0,0,.15,4.16c5.22,9.45,10.31,19,15.58,28.4,4.44,8,9.11,15.81,13.58,23.76,2.58,4.6,2.74,9.29-.49,13.67s-7.42,6.41-12.83,5.74c-4.23-.52-6.67-3.36-8.62-6.81-5.14-9.08-10.35-18.11-15.44-27.21-4.45-8-8.78-16-13.15-24-1.51-2.77-2.28-2.87-4-.29-5.28,7.78-10.61,15.54-15.76,23.41-5.51,8.43-13.5,9.61-21.28,3.24-8.21-6.73-16.63-13.2-25-19.79-.15-.12-.3-.22-.45-.33-6.34-5-7.59-10.54-3.61-16.15,4.43-6.25,12.66-8,18.74-3.75,4.88,3.41,9.51,7.18,14.27,10.78C43,181.09,43.86,181.71,45.21,182.68Z"/><path class="cls-1" d="M256.09,55c10.5.1,19.33,9.06,19.09,19.37A19.2,19.2,0,1,1,256.09,55Z"/><path class="cls-1" d="M124,91.48a19.13,19.13,0,1,1,19.21-19.17A19.28,19.28,0,0,1,124,91.48Z"/></svg>